<svg width="61" height="60" viewBox="0 0 61 60" fill="none" xmlns="http://www.w3.org/2000/svg">
<path d="M30.6762 14.6485C33.4 14.6485 35.8291 15.2176 37.9634 16.3559C40.1181 17.4739 41.795 19.0594 42.9943 21.1125C44.1936 23.1452 44.7933 25.4726 44.7933 28.0948C44.7933 30.6763 44.3461 32.6989 43.4517 34.1624C42.5573 35.6056 41.3174 36.3273 39.7319 36.3273C38.7358 36.3273 37.9227 36.0325 37.2926 35.443C36.6828 34.8535 36.3474 34.0405 36.2864 33.0038C35.6766 34.0608 34.8432 34.884 33.7862 35.4735C32.7292 36.0427 31.5299 36.3273 30.1883 36.3273C28.7654 36.3273 27.4747 35.9919 26.316 35.3211C25.1777 34.6299 24.2731 33.6847 23.6024 32.4854C22.9519 31.2862 22.6267 29.9344 22.6267 28.4302C22.6267 26.926 22.9519 25.5844 23.6024 24.4055C24.2731 23.2062 25.1777 22.2711 26.316 21.6003C27.4747 20.9295 28.7654 20.5941 30.1883 20.5941C31.4892 20.5941 32.658 20.8787 33.6947 21.4479C34.7517 21.9967 35.5953 22.7793 36.2254 23.7956V20.7161H38.2073V32.272C38.2073 33.0851 38.3801 33.6746 38.7257 34.0405C39.0712 34.4064 39.5286 34.5893 40.0977 34.5893C41.0531 34.5893 41.8052 34.0201 42.354 32.8818C42.9232 31.7435 43.2078 30.158 43.2078 28.1253C43.2078 25.7674 42.6793 23.694 41.6223 21.9052C40.5653 20.0961 39.0814 18.6936 37.1706 17.6975C35.2802 16.7015 33.1154 16.2035 30.6762 16.2035C28.2166 16.2035 26.0314 16.7218 24.1207 17.7585C22.2303 18.7749 20.7566 20.2181 19.6996 22.0882C18.6426 23.9379 18.1141 26.0519 18.1141 28.4302C18.1141 30.8085 18.6324 32.9326 19.6691 34.8027C20.7261 36.6728 22.1896 38.1262 24.0597 39.1629C25.9501 40.1996 28.115 40.7179 30.5542 40.7179C31.5096 40.7179 32.5056 40.6061 33.5423 40.3825C34.5993 40.1589 35.5546 39.8235 36.4084 39.3763L36.9267 40.8704C36.0527 41.3175 35.0363 41.6631 33.8777 41.907C32.7394 42.151 31.6315 42.2729 30.5542 42.2729C27.7897 42.2729 25.3403 41.6834 23.206 40.5045C21.0716 39.3255 19.4048 37.6892 18.2055 35.5955C17.0266 33.4815 16.4371 31.093 16.4371 28.4302C16.4371 25.747 17.0367 23.3688 18.236 21.2954C19.4353 19.2017 21.1123 17.5756 23.267 16.4169C25.4419 15.238 27.9117 14.6485 30.6762 14.6485ZM30.4627 34.5588C31.5604 34.5588 32.5462 34.3047 33.4203 33.7965C34.2944 33.2884 34.9855 32.5769 35.4937 31.6622C36.0018 30.7272 36.2559 29.6498 36.2559 28.4302C36.2559 27.2309 36.0018 26.1739 35.4937 25.2592C34.9855 24.3241 34.2944 23.6127 33.4203 23.1248C32.5462 22.6167 31.5604 22.3626 30.4627 22.3626C29.3447 22.3626 28.3386 22.6167 27.4442 23.1248C26.5701 23.633 25.879 24.3445 25.3708 25.2592C24.883 26.1739 24.639 27.2309 24.639 28.4302C24.639 29.6295 24.883 30.6967 25.3708 31.6317C25.879 32.5464 26.5701 33.268 27.4442 33.7965C28.3386 34.3047 29.3447 34.5588 30.4627 34.5588Z" fill="white"/>
<circle cx="30.7119" cy="30" r="29.5" stroke="white"/>
</svg>
